<svg width="20" height="20" viewBox="0 0 20 20" fill="none" xmlns="http://www.w3.org/2000/svg">
<path d="M11.9585 11.9898C12.4939 11.4426 12.7616 10.7782 12.7616 9.99654C12.7616 9.21487 12.4928 8.5516 11.9551 8.00673C11.4175 7.46186 10.7646 7.18942 9.9966 7.18942C9.22856 7.18942 8.57686 7.46301 8.04148 8.01019C7.50611 8.55737 7.23842 9.2218 7.23842 10.0035C7.23842 10.7851 7.50724 11.4484 8.04488 11.9933C8.58252 12.5381 9.23536 12.8106 10.0034 12.8106C10.7714 12.8106 11.4231 12.537 11.9585 11.9898ZM8.55449 11.4712C8.15769 11.0673 7.95929 10.5769 7.95929 10C7.95929 9.42308 8.15769 8.93269 8.55449 8.52885C8.9513 8.125 9.43314 7.92308 10 7.92308C10.5669 7.92308 11.0487 8.125 11.4455 8.52885C11.8423 8.93269 12.0407 9.42308 12.0407 10C12.0407 10.5769 11.8423 11.0673 11.4455 11.4712C11.0487 11.875 10.5669 12.0769 10 12.0769C9.43314 12.0769 8.9513 11.875 8.55449 11.4712ZM5.52611 13.6398C4.17924 12.733 3.17054 11.5197 2.5 10C3.17054 8.48026 4.17855 7.26699 5.52404 6.36019C6.86952 5.4534 8.36082 5 9.99792 5C11.635 5 13.127 5.4534 14.4739 6.36019C15.8208 7.26699 16.8295 8.48026 17.5 10C16.8295 11.5197 15.8215 12.733 14.476 13.6398C13.1305 14.5466 11.6392 15 10.0021 15C8.36497 15 6.87298 14.5466 5.52611 13.6398ZM13.9208 13.0865C15.1112 12.3237 16.0214 11.2949 16.6512 10C16.0214 8.70513 15.1112 7.67628 13.9208 6.91346C12.7304 6.15064 11.4235 5.76923 10 5.76923C8.57654 5.76923 7.2696 6.15064 6.07918 6.91346C4.88877 7.67628 3.97864 8.70513 3.34879 10C3.97864 11.2949 4.88877 12.3237 6.07918 13.0865C7.2696 13.8494 8.57654 14.2308 10 14.2308C11.4235 14.2308 12.7304 13.8494 13.9208 13.0865Z" fill="#404040"/>
</svg>
